<svg xmlns="http://www.w3.org/2000/svg" xmlns:xlink="http://www.w3.org/1999/xlink" viewBox="0 0 500 500"><defs><clipPath id="freepik--clip-path--inject-186"><polygon points="87.86 98.58 94.54 146.78 138.43 140.63 132.45 92.58 87.86 98.58" style="fill:#B0BEC5"></polygon></clipPath></defs><g id="freepik--background-complete--inject-186"><path d="M120.82,421.41c20.6-14.39,25.28-41.1,24.46-65.12-.14-4,.3-8.23-1.6-11.75s-6.36-5.92-10-4.23c-3,1.4-4.27,4.87-5.94,7.73a23.41,23.41,0,0,1-9.4,9c-2.55,1.32-5.7,2.13-8.22.74-3.46-1.9-3.87-6.68-3.84-10.67q.06-11.14.13-22.29c0-4,0-8.05-1.2-11.84s-4-7.29-7.77-8.36-8.48,1.13-9.28,5c-.34,1.62,0,3.31-.12,5s-.88,3.49-2.45,4-3.19-.66-4.38-1.83c-4.11-4-6.9-9.21-9.51-14.37s-5.14-10.43-8.88-14.82-8.9-7.87-14.6-8.19-11.8,3.2-13.24,8.8,1.83,11.32,5.4,15.87A88.91,88.91,0,0,0,59,321.66c1.25.9,2.62,1.86,3.1,3.34.86,2.65-1.66,5.29-4.28,6.17-3,1-6.19.68-9.3,1S42,334,40.83,336.89C39.19,341,42.6,345.23,46,348a76.19,76.19,0,0,0,22.56,13c2.94,1.08,6,2,8.39,4.08s-1.31,9.35-2.74,12.16,0,0-3.07-.57-5.82-2.24-8.75-3.34c-5.47-2.07-12.55-1.69-16.06,3-2.3,3.11-2.51,7.45-1.34,11.16s3.53,6.9,6,9.85c8.78,10.3,20,18.59,32.73,23s24.48,5.6,37.11,1" style="fill:#ebebeb"></path><path d="M121.14,439.21a175.46,175.46,0,0,0-6.51-32.85,358.28,358.28,0,0,0-14.18-38.46L96.21,358c-1.4-3.24-2.78-6.46-4.33-9.52A177.93,177.93,0,0,0,82,331.41c-3.42-5.28-6.85-10.17-10.09-14.72s-6.37-8.71-9.37-12.4A141.68,141.68,0,0,0,47.07,288c-2-1.78-3.54-3.11-4.61-4l-1.23-1a2.56,2.56,0,0,0-.44-.33,2.44,2.44,0,0,0,.39.38l1.18,1.06c1,.92,2.58,2.28,4.52,4.09a151.14,151.14,0,0,1,15.23,16.43c3,3.7,6,7.88,9.27,12.43s6.63,9.45,10,14.73a179.77,179.77,0,0,1,9.84,17c1.54,3,2.91,6.23,4.3,9.49l4.23,9.88A365.11,365.11,0,0,1,114,406.55a177.93,177.93,0,0,1,6.64,32.71" style="fill:#e0e0e0"></path><path d="M91.67,348.46a7.69,7.69,0,0,0,.39-1.7c.21-1.1.46-2.7.74-4.69.56-4,1.15-9.48,1.78-15.55S95.88,315,96.5,311c.31-2,.57-3.57.77-4.68a7.75,7.75,0,0,0,.22-1.73,8.5,8.5,0,0,0-.5,1.67c-.28,1.09-.63,2.68-1,4.65-.75,3.94-1.51,9.44-2.13,15.52S92.7,337.86,92.28,342c-.2,1.87-.37,3.44-.5,4.71A7.84,7.84,0,0,0,91.67,348.46Z" style="fill:#e0e0e0"></path><path d="M40.42,338.88a10.93,10.93,0,0,0,2,.25c1.32.11,3.22.27,5.57.55,4.69.5,11.15,1.43,18.23,2.76s13.44,2.84,18,4.06c2.29.59,4.13,1.11,5.4,1.47a10.85,10.85,0,0,0,2,.49,10.83,10.83,0,0,0-1.92-.77c-1.25-.44-3.07-1-5.34-1.7-4.55-1.35-10.91-2.92-18-4.28s-13.6-2.18-18.32-2.56c-2.36-.2-4.28-.28-5.6-.31A11.35,11.35,0,0,0,40.42,338.88Z" style="fill:#e0e0e0"></path><path d="M114,405.41s.15-.2.36-.62l.87-1.86c.76-1.61,1.79-4,3-6.91,2.47-5.87,5.63-14.09,9-23.2s6.45-17.36,8.79-23.27l2.8-7c.3-.76.55-1.39.75-1.91a2.69,2.69,0,0,0,.22-.68,2.8,2.8,0,0,0-.35.62l-.88,1.85c-.75,1.62-1.78,4-3,6.92-2.47,5.87-5.63,14.09-9,23.21s-6.44,17.35-8.79,23.26c-1.15,2.88-2.09,5.24-2.8,7-.3.76-.55,1.39-.75,1.91A3.35,3.35,0,0,0,114,405.41Z" style="fill:#e0e0e0"></path><path d="M45.89,383.46a2.53,2.53,0,0,0,.68.28l2,.67,7.3,2.36c6.15,2,14.63,4.85,24,8s17.86,5.95,24.07,7.82c3.1.94,5.61,1.67,7.36,2.14l2,.53a2.4,2.4,0,0,0,.71.13,2.77,2.77,0,0,0-.67-.28l-2-.66-7.29-2.36c-6.16-2-14.63-4.85-24-8S62.19,388.14,56,386.27c-3.1-.94-5.62-1.67-7.37-2.14l-2-.53A3.45,3.45,0,0,0,45.89,383.46Z" style="fill:#e0e0e0"></path><polygon points="373.2 71.38 318.16 205.79 416.97 245.47 471.17 111.94 373.2 71.38" style="fill:#e6e6e6"></polygon><path d="M373.2,71.38l98,40.45.11,0-.05.11c-15.22,37.52-33.94,83.69-54.17,133.55l-.05.13-.14,0-.72-.29-98.08-39.41-.12,0,.05-.12L373.2,71.38,318.28,205.84l-.07-.17,98.09,39.38.72.29-.19.08c20.25-49.85,39-96,54.23-133.53l.06.15Z" style="fill:#e6e6e6"></path><polygon points="365.99 58.55 310.95 192.96 409.76 232.65 463.96 99.11 365.99 58.55" style="fill:#fafafa"></polygon><path d="M366,58.55,464,99l.11,0,0,.11L409.89,232.7l-.05.14-.13-.06-.72-.29-98.09-39.4-.12-.05.05-.13L366,58.55,311.07,193l-.07-.17,98.09,39.39.72.28-.18.08c20.24-49.85,39-96,54.22-133.53l.06.16Z" style="fill:#ebebeb"></path><path d="M440.37,119.54c-.09.23-17.22-6.24-38.26-14.45s-38-15-37.95-15.25,17.22,6.24,38.26,14.45S440.46,119.32,440.37,119.54Z" style="fill:#e0e0e0"></path><path d="M436.59,131.84c-.09.22-17.22-6.25-38.26-14.45s-38-15-37.95-15.26,17.22,6.25,38.26,14.46S436.67,131.62,436.59,131.84Z" style="fill:#e0e0e0"></path><path d="M423.81,169.1c-.08.22-17.22-6.25-38.26-14.45s-38-15-37.94-15.26,17.21,6.25,38.26,14.45S423.9,168.88,423.81,169.1Z" style="fill:#e0e0e0"></path><path d="M417.78,181.69c-.08.22-17.22-6.25-38.26-14.45s-38-15-37.94-15.26,17.21,6.24,38.26,14.45S417.87,181.46,417.78,181.69Z" style="fill:#e0e0e0"></path><path d="M412.77,194.4c-.09.22-17.22-6.25-38.26-14.45s-38-15-37.94-15.26,17.21,6.25,38.26,14.45S412.86,194.18,412.77,194.4Z" style="fill:#e0e0e0"></path><path d="M407.76,207.11c-.09.22-17.22-6.25-38.26-14.45s-38-15-37.94-15.26,17.21,6.25,38.26,14.45S407.85,206.89,407.76,207.11Z" style="fill:#e0e0e0"></path><path d="M377.4,106.43c-.25.52-1.27,2.88-1.27,2.88l41.69,16.91,1.27-3.58Z" style="fill:#ebebeb"></path><path d="M356.41,111.66c-.26.52-1.79,3.72-1.79,3.72l78.15,29.76,1.92-4.08Z" style="fill:#ebebeb"></path><path d="M351.87,124.32,350.09,128l78.14,29.76,1.92-4.08Z" style="fill:#ebebeb"></path><path d="M347.94,137.6c-.08.19-1.4,4-1.4,4l39.11,15,2.2-4.59Z" style="fill:#ebebeb"></path></g><g id="freepik--Floor--inject-186"><path d="M450.12,437.64c0,.15-92.84.26-207.32.26s-207.35-.11-207.35-.26,92.82-.26,207.35-.26S450.12,437.5,450.12,437.64Z" style="fill:#263238"></path></g><g id="freepik--Document--inject-186"><path d="M98.94,66.79C97.6,112,93.67,281.94,92.63,327.28a11.26,11.26,0,0,0,10.92,11.52l186.24,5.69a11.27,11.27,0,0,0,11.61-11l2.9-131.34,15.77-.26a7.17,7.17,0,0,0,7.05-7.08L328.33,89a7.17,7.17,0,0,0-7.05-7.24L307,81.48l.11-10.23a11.21,11.21,0,0,0-11-11.33l-185.79-4A11.2,11.2,0,0,0,98.94,66.79Z" style="fill:#B0BEC5"></path><path d="M98.94,66.79C97.6,112,93.67,281.94,92.63,327.28a11.26,11.26,0,0,0,10.92,11.52l186.24,5.69a11.27,11.27,0,0,0,11.61-11l2.9-131.34,15.77-.26a7.17,7.17,0,0,0,7.05-7.08L328.33,89a7.17,7.17,0,0,0-7.05-7.24L307,81.48l.11-10.23a11.21,11.21,0,0,0-11-11.33l-185.79-4A11.2,11.2,0,0,0,98.94,66.79Z" style="opacity:0.4"></path><polygon points="113.09 68.73 96.66 330.4 288.57 341.15 304.06 81.45 113.09 68.73" style="fill:#e0e0e0"></polygon><polygon points="90.02 63.05 91.3 325.24 283.5 323 281.42 62.85 90.02 63.05" style="fill:#ebebeb"></polygon><polygon points="64.86 81.09 101.14 340.76 291.32 312.88 254.52 55.34 64.86 81.09" style="fill:#fafafa"></polygon><path d="M64.86,81.09l189.63-26,.21,0,0,.21c10.35,72.35,23.09,161.38,36.84,257.53l0,.26-.26,0-1.38.2L101.17,341l-.24,0,0-.24c-21.32-153.63-35.75-257.63-36-259.7l36.51,259.64-.27-.21,188.79-27.69,1.39-.21-.22.3c-13.72-96.16-26.43-185.19-36.75-257.55l.24.18Z" style="fill:#263238"></path><path d="M242.57,141.26c.07.43-32.53,5.9-72.81,12.23s-73,11.1-73,10.68,32.53-5.9,72.81-12.23S242.5,140.84,242.57,141.26Z" style="fill:#263238"></path><path d="M256.5,211c.06.42-32.54,5.9-72.81,12.22s-73,11.11-73,10.68,32.52-5.9,72.81-12.22S256.43,210.56,256.5,211Z" style="fill:#263238"></path><path d="M258.53,236.1c.06.43-32.54,5.9-72.81,12.22s-73,11.11-73,10.68,32.52-5.9,72.81-12.22S258.46,235.67,258.53,236.1Z" style="fill:#263238"></path><path d="M235.17,86.17c0,.39-21.88,3.8-48.9,7.62s-49,6.6-49,6.21,21.88-3.81,48.91-7.62S235.15,85.78,235.17,86.17Z" style="fill:#263238"></path><path d="M238.26,100.07c0,.39-21.88,3.81-48.9,7.62s-49,6.6-49,6.21,21.87-3.8,48.9-7.62S238.25,99.68,238.26,100.07Z" style="fill:#263238"></path><path d="M242,114.74c0,.4-21.88,3.81-48.91,7.63s-48.94,6.59-49,6.2S166,124.77,193,121,242,114.35,242,114.74Z" style="fill:#263238"></path><path d="M262.26,260.48c.07.42-32.53,5.9-72.81,12.22s-73,11.11-73,10.68,32.53-5.9,72.81-12.22S262.19,260.05,262.26,260.48Z" style="fill:#263238"></path><path d="M266,284.86c.07.42-32.53,5.9-72.8,12.22s-73,11.11-73.06,10.68,32.53-5.9,72.82-12.22S265.93,284.43,266,284.86Z" style="fill:#263238"></path><path d="M127.16,155.4c.08,1,.63,5.66.63,5.66l80.39-11.52-1.25-6.73Z" style="fill:#B0BEC5"></path><path d="M99.16,182.64c.09,1,.6,7.43.6,7.43l148.93-24.59-.71-8.1Z" style="fill:#B0BEC5"></path><path d="M103.59,206.5c.09,1,.6,7.44.6,7.44l148.93-24.59-.71-8.11Z" style="fill:#B0BEC5"></path><path d="M109.54,230.79c0,.37,1.46,7.55,1.46,7.55l74.63-12.14-.74-9.17Z" style="fill:#B0BEC5"></path><polygon points="87.86 98.58 94.54 146.78 138.43 140.63 132.45 92.58 87.86 98.58" style="fill:#263238"></polygon><polygon points="87.86 98.58 94.54 146.78 138.43 140.63 132.45 92.58 87.86 98.58" style="fill:#B0BEC5"></polygon><g style="clip-path:url(#freepik--clip-path--inject-186)"><path d="M109.74,138.5,123,134.92c-.21-1.59-1.46-7.63-1.46-7.63s5.43-1.91,4.45-7.51-4.33-18.24-4.33-18.24h0a19.74,19.74,0,0,0-19,6.1l-.71.79Z" style="fill:#ffbe9d"></path><path d="M122.13,111.38A.82.82,0,1,1,123,110a.81.81,0,0,1,.27,1.13A.83.83,0,0,1,122.13,111.38Z" style="fill:#263238"></path><path d="M123.25,109.85c-.07.12-.7-.2-1.47-.06s-1.25.64-1.35.56,0-.23.21-.46a1.85,1.85,0,0,1,1.06-.57,2,2,0,0,1,1.19.17C123.17,109.64,123.28,109.8,123.25,109.85Z" style="fill:#263238"></path><path d="M114.51,112.18a.82.82,0,0,1,.48,1.06.82.82,0,1,1-1.54-.59A.82.82,0,0,1,114.51,112.18Z" style="fill:#263238"></path><path d="M115,112.09c-.07.11-.7-.21-1.46-.07s-1.26.65-1.36.56,0-.22.21-.46a2,2,0,0,1,2.26-.39C114.94,111.88,115.06,112,115,112.09Z" style="fill:#263238"></path><path d="M119.29,117.86a3.89,3.89,0,0,1,1.19-.5c.2-.06.35-.13.35-.24a1.14,1.14,0,0,0-.26-.55l-.9-1.45a22.7,22.7,0,0,1-2.08-3.86,20.78,20.78,0,0,1,2.46,3.63l.87,1.47a1.29,1.29,0,0,1,.27.81.52.52,0,0,1-.29.39,1.41,1.41,0,0,1-.33.11A3.85,3.85,0,0,1,119.29,117.86Z" style="fill:#263238"></path><path d="M117,119.18c-.89-.33,2.43.76,4,.39a2.16,2.16,0,0,1-2.35,1.31C116.79,120.58,117,119.18,117,119.18Z" style="fill:#fff"></path><path d="M121.51,127.21a13.18,13.18,0,0,1-7.67-.71s2.47,3.7,8,2.15Z" style="fill:#eb996e"></path><path d="M102.87,113.83c-.13,0-4.22.47-2.67,5s5.66,1.5,5.63,1.37S102.87,113.83,102.87,113.83Z" style="fill:#ffbe9d"></path><path d="M103.88,119.12s-.06.08-.18.19a.85.85,0,0,1-.59.21c-.54,0-1.21-.64-1.51-1.46a2.79,2.79,0,0,1-.16-1.22,1,1,0,0,1,.39-.82.42.42,0,0,1,.54.06c.11.11.11.21.14.21s.07-.11,0-.29a.54.54,0,0,0-.28-.22.62.62,0,0,0-.48,0,1.19,1.19,0,0,0-.59,1,2.85,2.85,0,0,0,.15,1.37,2.19,2.19,0,0,0,1.84,1.59.88.88,0,0,0,.68-.37C103.91,119.23,103.9,119.12,103.88,119.12Z" style="fill:#eb996e"></path><path d="M121.58,101.38c-.73,4.11-6,6.66-10.06,7.65,1.59-2,.48-1.45,1.44-2.84a17.64,17.64,0,0,1-10.58,6.35,7.57,7.57,0,0,1,3.17-10.41c1.19-.61,2.51-.9,3.74-1.43,1-.45,2-1.08,3.06-1.45,3.2-1.1,8.37-3,9.23,2.13" style="fill:#263238"></path><path d="M104.5,110c-.11.58-.1,7.14-.1,7.14l-2.57-5.85Z" style="fill:#263238"></path><path d="M83.46,161.85l11.11-16.37h0a24.65,24.65,0,0,1,8.31-7.89,19.62,19.62,0,0,1,5.71-2.24h0a24.21,24.21,0,0,0,14.32-2.67,35,35,0,0,1,11.89,1.13h0l22,4.48-3.18,19.3L142,156l2.52,17.12,6.92,25-42.36,8.36-3.76-23.17-3.08-16.69-5,7.1Z" style="fill:#455a64"></path></g></g><g id="freepik--Character--inject-186"><path d="M323.69,434.16l-.05-9.2,17.22-.2.22,13.45-1.07.08c-4.75.32-24.17,1.3-27.36.37C309.1,437.63,323.69,434.16,323.69,434.16Z" style="fill:#B0BEC5"></path><path d="M334.84,438.15a6,6,0,0,1,2.15-3.7,5.79,5.79,0,0,1,4-1.3l.06,4.81Z" style="fill:#B0BEC5"></path><path d="M316.56,436.11s-5.11,1.54-4.46,2.38,20.32.59,29-.28l0-.39-22.94.49S317.57,436.14,316.56,436.11Z" style="fill:#B0BEC5"></path><path d="M341.32,437.81l-.3,0-.85.07-3.12.17c-2.65.13-6.3.26-10.34.31s-7.69,0-10.34,0l-3.13-.09-.85,0-.3,0h1.15l3.14,0c2.64,0,6.29,0,10.33,0s7.69-.17,10.33-.26l3.13-.1.85,0Z" style="fill:#263238"></path><path d="M318.12,438.58a6.85,6.85,0,0,0-.6-1.49,6.93,6.93,0,0,0-1.08-1.18A2.28,2.28,0,0,1,317.7,437,2.33,2.33,0,0,1,318.12,438.58Z" style="fill:#263238"></path><path d="M323.17,435.93c-.05,0-.29-.26-.55-.65a1.91,1.91,0,0,1-.38-.77c.05,0,.3.26.55.66S323.22,435.9,323.17,435.93Z" style="fill:#263238"></path><path d="M324.56,435.18s-.32-.14-.62-.4-.51-.51-.47-.55.31.13.61.4S324.59,435.14,324.56,435.18Z" style="fill:#263238"></path><path d="M325.42,433.54a1.94,1.94,0,0,1-.9.13,2.21,2.21,0,0,1-.9-.08,1.94,1.94,0,0,1,.9-.13A2.24,2.24,0,0,1,325.42,433.54Z" style="fill:#263238"></path><path d="M325.71,432.39a1.76,1.76,0,0,1-1,.31,1.7,1.7,0,0,1-1-.13,5.54,5.54,0,0,1,1-.08A6.2,6.2,0,0,1,325.71,432.39Z" style="fill:#263238"></path><path d="M322.57,434.44a3.37,3.37,0,0,1-1.11,0,7.18,7.18,0,0,1-1.18-.25,3.1,3.1,0,0,1-.68-.27.61.61,0,0,1-.28-.34.44.44,0,0,1,.17-.44,2,2,0,0,1,2.51.56,1.91,1.91,0,0,1,.37.73.69.69,0,0,1,0,.3,3.28,3.28,0,0,0-.52-.94,2.1,2.1,0,0,0-.95-.6,1.73,1.73,0,0,0-1.32.11c-.18.13-.1.34.09.45a3.48,3.48,0,0,0,.63.26,7,7,0,0,0,1.14.28C322.15,434.41,322.57,434.41,322.57,434.44Z" style="fill:#263238"></path><path d="M322.28,434.5a1.17,1.17,0,0,1-.14-.77,1.84,1.84,0,0,1,.3-.81,1.12,1.12,0,0,1,.91-.58.44.44,0,0,1,.35.51,1.29,1.29,0,0,1-.18.5,3.18,3.18,0,0,1-.52.67,1.49,1.49,0,0,1-.63.46s.22-.2.52-.56a3.39,3.39,0,0,0,.46-.67c.15-.23.25-.65,0-.7s-.56.26-.73.48a1.82,1.82,0,0,0-.3.72A4.44,4.44,0,0,0,322.28,434.5Z" style="fill:#263238"></path><path d="M340.91,433.1s-.5,0-1.27.06a5.42,5.42,0,0,0-4.47,3.65c-.25.75-.27,1.24-.31,1.24a1.22,1.22,0,0,1,0-.35,5.23,5.23,0,0,1,.18-.93,5.24,5.24,0,0,1,4.59-3.76,4.64,4.64,0,0,1,.95,0A1.26,1.26,0,0,1,340.91,433.1Z" style="fill:#263238"></path><path d="M339,426a56.85,56.85,0,0,1,.18,7.07A62.51,62.51,0,0,1,339,426Z" style="fill:#263238"></path><path d="M332.65,436.5a14.22,14.22,0,0,1-5,.11c0-.06,1.13,0,2.52,0S332.64,436.44,332.65,436.5Z" style="fill:#263238"></path><path d="M336,436.45s-.09.24-.2.5-.17.49-.23.48-.09-.27,0-.57S336,436.41,336,436.45Z" style="fill:#263238"></path><path d="M337.27,434.85c.05,0-.06.22-.24.4s-.35.3-.39.26.06-.22.24-.4S337.23,434.81,337.27,434.85Z" style="fill:#263238"></path><path d="M339.08,434.1c0,.06-.24.06-.49.15s-.43.23-.48.19.1-.27.41-.38S339.1,434.05,339.08,434.1Z" style="fill:#263238"></path><path d="M340.38,433.74c0,.06-.08.15-.22.2s-.28.07-.3,0,.08-.14.22-.2S340.35,433.69,340.38,433.74Z" style="fill:#263238"></path><path d="M411.71,429.41l-2.81-8.76-16.43,5.15,4,12.85,1-.25c4.62-1.17,23.38-6.27,26.13-8.14C426.66,428.18,411.71,429.41,411.71,429.41Z" style="fill:#B0BEC5"></path><path d="M402.35,436.66a5.94,5.94,0,0,0-3.19-2.85,5.8,5.8,0,0,0-4.22,0l1.44,4.59Z" style="fill:#B0BEC5"></path><path d="M419.09,429.05s5.34-.12,5,.88-19.13,6.86-27.64,8.72l-.08-.37,21.95-6.66S418.15,429.39,419.09,429.05Z" style="fill:#B0BEC5"></path><path d="M396.08,438.35l.3-.06.82-.21,3-.8c2.55-.7,6.07-1.71,9.92-2.91s7.32-2.37,9.82-3.24l2.95-1.06.8-.3a1.23,1.23,0,0,0,.27-.12l-.29.08-.81.26-3,1c-2.51.84-6,2-9.83,3.18s-7.36,2.23-9.9,3l-3,.87-.81.24A1.65,1.65,0,0,0,396.08,438.35Z" style="fill:#263238"></path><path d="M418.37,431.88a7.52,7.52,0,0,1,.12-1.6,6.85,6.85,0,0,1,.66-1.46,2.27,2.27,0,0,0-.87,1.41A2.41,2.41,0,0,0,418.37,431.88Z" style="fill:#263238"></path><path d="M412.75,430.93c.06,0,.2-.34.33-.79s.17-.83.11-.85a2.09,2.09,0,0,0-.32.8A1.92,1.92,0,0,0,412.75,430.93Z" style="fill:#263238"></path><path d="M411.2,430.65c.05,0,.26-.23.46-.57s.33-.65.28-.68-.25.23-.46.57S411.15,430.62,411.2,430.65Z" style="fill:#263238"></path><path d="M409.88,429.36a2.21,2.21,0,0,0,.89-.16,2.23,2.23,0,0,0,.83-.36,1.84,1.84,0,0,0-.89.16C410.23,429.14,409.86,429.3,409.88,429.36Z" style="fill:#263238"></path><path d="M409.25,428.35a1.62,1.62,0,0,0,1,0,1.78,1.78,0,0,0,.95-.44,5.53,5.53,0,0,0-1,.24A5.91,5.91,0,0,0,409.25,428.35Z" style="fill:#263238"></path><path d="M412.86,429.32a2.92,2.92,0,0,0,1.06-.33,7,7,0,0,0,1.05-.6,3.33,3.33,0,0,0,.56-.47.64.64,0,0,0,.16-.41.44.44,0,0,0-.3-.37,2,2,0,0,0-2.22,1.31,2.11,2.11,0,0,0-.12.82.6.6,0,0,0,.06.29,3,3,0,0,1,.2-1.05,2,2,0,0,1,.72-.87,1.73,1.73,0,0,1,1.29-.31c.2.08.2.29.05.46a3.11,3.11,0,0,1-.52.44,8,8,0,0,1-1,.63C413.26,429.17,412.85,429.29,412.86,429.32Z" style="fill:#263238"></path><path d="M413.15,429.29a1.1,1.1,0,0,0-.1-.77,1.73,1.73,0,0,0-.53-.68,1.11,1.11,0,0,0-1-.27.43.43,0,0,0-.17.59,1.17,1.17,0,0,0,.32.42,3.66,3.66,0,0,0,.7.48,1.5,1.5,0,0,0,.74.24s-.27-.12-.67-.37a4.06,4.06,0,0,1-.64-.49c-.21-.18-.44-.55-.19-.68a1,1,0,0,1,.84.23,1.81,1.81,0,0,1,.51.59A3.08,3.08,0,0,1,413.15,429.29Z" style="fill:#263238"></path><path d="M395,433.74s.46-.19,1.23-.33a5.39,5.39,0,0,1,5.38,2.08c.47.63.64,1.1.68,1.08a1.2,1.2,0,0,0-.1-.33,4.59,4.59,0,0,0-.46-.83,5.25,5.25,0,0,0-5.53-2.15,5.07,5.07,0,0,0-.9.31A1.08,1.08,0,0,0,395,433.74Z" style="fill:#263238"></path><path d="M394.58,426.37a57.39,57.39,0,0,0,2,6.78,32.75,32.75,0,0,0-.92-3.42A29.33,29.33,0,0,0,394.58,426.37Z" style="fill:#263238"></path><path d="M403.92,434.41a10.3,10.3,0,0,0,2.48-.51,9.94,9.94,0,0,0,2.34-.95c0-.05-1.08.35-2.4.75S403.91,434.35,403.92,434.41Z" style="fill:#263238"></path><path d="M400.7,435.41s.16.2.34.41.32.41.37.39,0-.28-.21-.53S400.72,435.36,400.7,435.41Z" style="fill:#263238"></path><path d="M399,434.28c0,.05.13.19.36.31s.43.17.45.12-.13-.19-.35-.31S399,434.23,399,434.28Z" style="fill:#263238"></path><path d="M397.06,434.13c0,.05.24,0,.51,0s.49.09.52,0-.18-.23-.51-.24S397,434.08,397.06,434.13Z" style="fill:#263238"></path><path d="M395.72,434.19c0,.06.12.11.27.12s.28,0,.28-.08-.11-.11-.27-.12S395.72,434.13,395.72,434.19Z" style="fill:#263238"></path><polyline points="311.97 251.55 320.01 430.2 346.83 430.76 342.38 281.2 390.98 432.54 412.9 426.54 363.99 251.55" style="fill:#263238"></polyline><polygon points="389.83 431.53 391.08 433.93 414.31 427.16 412.9 423.26 389.83 431.53" style="fill:#455a64"></polygon><path d="M410.22,422.37c.14,0,.35.25.47.64s.1.76,0,.8-.34-.25-.46-.65S410.08,422.41,410.22,422.37Z" style="fill:#455a64"></path><path d="M408.48,416.57c.14,0,.45.57.69,1.37s.32,1.49.18,1.53-.44-.57-.68-1.38S408.34,416.61,408.48,416.57Z" style="fill:#455a64"></path><path d="M406.74,410.77c.14,0,.45.57.69,1.37s.32,1.49.18,1.53-.44-.58-.68-1.38S406.6,410.81,406.74,410.77Z" style="fill:#455a64"></path><path d="M405,405c.14,0,.45.57.69,1.37s.32,1.49.18,1.53-.44-.58-.68-1.38S404.86,405,405,405Z" style="fill:#455a64"></path><path d="M403.26,399.17c.14,0,.45.57.69,1.37s.32,1.49.18,1.53-.44-.58-.68-1.38S403.13,399.21,403.26,399.17Z" style="fill:#455a64"></path><path d="M401.52,393.37c.14-.05.45.57.69,1.37s.32,1.48.18,1.53-.44-.58-.68-1.38S401.39,393.41,401.52,393.37Z" style="fill:#455a64"></path><path d="M399.78,387.56c.14,0,.45.58.69,1.38s.32,1.48.18,1.53-.44-.58-.68-1.38S399.65,387.61,399.78,387.56Z" style="fill:#455a64"></path><path d="M398,381.76c.14,0,.45.58.69,1.38s.32,1.48.18,1.52-.44-.57-.68-1.37S397.91,381.81,398,381.76Z" style="fill:#455a64"></path><path d="M396.3,376c.14,0,.45.58.69,1.38s.32,1.48.18,1.52-.44-.57-.68-1.37S396.17,376,396.3,376Z" style="fill:#455a64"></path><path d="M394.56,370.16c.14,0,.45.58.69,1.38s.32,1.48.18,1.52-.44-.57-.68-1.37S394.43,370.2,394.56,370.16Z" style="fill:#455a64"></path><path d="M392.83,364.36c.13,0,.44.58.68,1.38s.32,1.48.19,1.52-.45-.57-.69-1.37S392.69,364.4,392.83,364.36Z" style="fill:#455a64"></path><path d="M391.09,358.56c.13,0,.44.57.68,1.38s.32,1.48.19,1.52-.45-.57-.69-1.37S391,358.6,391.09,358.56Z" style="fill:#455a64"></path><path d="M389.35,352.76c.13,0,.44.57.68,1.37s.32,1.49.19,1.53-.45-.57-.69-1.38S389.21,352.8,389.35,352.76Z" style="fill:#455a64"></path><path d="M387.61,347c.13,0,.44.57.68,1.37s.32,1.49.19,1.53-.45-.58-.69-1.38S387.47,347,387.61,347Z" style="fill:#455a64"></path><path d="M385.87,341.16c.13,0,.44.57.68,1.37s.32,1.49.19,1.53-.45-.58-.69-1.38S385.73,341.2,385.87,341.16Z" style="fill:#455a64"></path><path d="M384.13,335.36c.14,0,.44.57.68,1.37s.33,1.49.19,1.53-.45-.58-.69-1.38S384,335.4,384.13,335.36Z" style="fill:#455a64"></path><path d="M382.39,329.56c.14-.05.44.57.68,1.37s.33,1.48.19,1.53-.45-.58-.69-1.38S382.25,329.6,382.39,329.56Z" style="fill:#455a64"></path><path d="M380.65,323.75c.14,0,.44.58.68,1.38s.33,1.48.19,1.53-.45-.58-.69-1.38S380.51,323.8,380.65,323.75Z" style="fill:#455a64"></path><path d="M378.91,318c.14,0,.44.58.68,1.38s.33,1.48.19,1.52-.45-.57-.69-1.37S378.77,318,378.91,318Z" style="fill:#455a64"></path><path d="M377.17,312.15c.14,0,.44.58.68,1.38s.33,1.48.19,1.52-.45-.57-.69-1.37S377,312.19,377.17,312.15Z" style="fill:#455a64"></path><path d="M375.43,306.35c.14,0,.44.58.68,1.38s.33,1.48.19,1.52-.44-.57-.69-1.37S375.29,306.39,375.43,306.35Z" style="fill:#455a64"></path><path d="M373.69,300.55c.14,0,.44.58.68,1.38s.33,1.48.19,1.52-.44-.57-.68-1.37S373.55,300.59,373.69,300.55Z" style="fill:#455a64"></path><path d="M372,294.75c.14,0,.44.57.68,1.38s.33,1.48.19,1.52-.44-.57-.68-1.37S371.81,294.79,372,294.75Z" style="fill:#455a64"></path><path d="M370.21,289c.14,0,.44.57.69,1.37s.32,1.49.18,1.53-.44-.57-.68-1.38S370.07,289,370.21,289Z" style="fill:#455a64"></path><path d="M368.47,283.15c.14,0,.45.57.69,1.37s.32,1.49.18,1.53-.44-.58-.68-1.38S368.33,283.19,368.47,283.15Z" style="fill:#455a64"></path><path d="M366.73,277.35c.14,0,.45.57.69,1.37s.32,1.49.18,1.53-.44-.58-.68-1.38S366.59,277.39,366.73,277.35Z" style="fill:#455a64"></path><path d="M365,271.55c.14,0,.45.57.69,1.37s.32,1.49.18,1.53-.44-.58-.68-1.38S364.85,271.59,365,271.55Z" style="fill:#455a64"></path><path d="M363.25,265.75c.14-.05.45.57.69,1.37s.32,1.48.18,1.53-.44-.58-.68-1.38S363.11,265.79,363.25,265.75Z" style="fill:#455a64"></path><path d="M361.51,259.94c.14,0,.45.58.69,1.38s.32,1.48.18,1.53-.44-.58-.68-1.38S361.38,260,361.51,259.94Z" style="fill:#455a64"></path><path d="M360.21,255.61c.14,0,.35.24.47.64s.1.75,0,.79-.34-.24-.46-.64S360.07,255.65,360.21,255.61Z" style="fill:#455a64"></path><path d="M342.21,429.3c.14,0,.27.32.3.73s-.08.76-.23.77-.27-.32-.29-.74S342.06,429.31,342.21,429.3Z" style="fill:#455a64"></path><path d="M342,423.35c.14,0,.29.65.32,1.48s-.06,1.49-.21,1.49-.28-.65-.31-1.47S341.82,423.35,342,423.35Z" style="fill:#455a64"></path><path d="M341.78,417.4c.14,0,.28.65.3,1.48s-.07,1.49-.22,1.49-.28-.66-.3-1.48S341.63,417.4,341.78,417.4Z" style="fill:#455a64"></path><path d="M341.63,411.44c.14,0,.27.66.29,1.48s-.08,1.49-.22,1.5-.28-.66-.3-1.48S341.48,411.44,341.63,411.44Z" style="fill:#455a64"></path><path d="M341.48,405.48c.15,0,.28.66.3,1.49s-.08,1.49-.22,1.49-.28-.66-.3-1.48S341.34,405.49,341.48,405.48Z" style="fill:#455a64"></path><path d="M341.33,399.52c.14,0,.28.66.3,1.49s-.08,1.49-.22,1.49-.28-.66-.3-1.48S341.19,399.53,341.33,399.52Z" style="fill:#455a64"></path><path d="M341.13,393.57c.15,0,.29.65.32,1.48s-.07,1.49-.21,1.5-.29-.66-.31-1.48S341,393.57,341.13,393.57Z" style="fill:#455a64"></path><path d="M340.88,387.62c.15,0,.29.65.33,1.47s-.06,1.5-.2,1.5-.29-.65-.33-1.48S340.74,387.62,340.88,387.62Z" style="fill:#455a64"></path><path d="M340.65,381.66c.14,0,.29.66.32,1.48s-.06,1.49-.21,1.5-.28-.66-.31-1.48S340.51,381.67,340.65,381.66Z" style="fill:#455a64"></path><path d="M340.44,375.71c.15,0,.29.66.31,1.48s-.06,1.49-.21,1.5-.28-.66-.31-1.48S340.3,375.72,340.44,375.71Z" style="fill:#455a64"></path><path d="M340.26,369.75c.14,0,.28.66.3,1.48s-.07,1.49-.21,1.5-.28-.66-.31-1.48S340.12,369.76,340.26,369.75Z" style="fill:#455a64"></path><path d="M340.1,363.8c.15,0,.28.66.3,1.48s-.08,1.49-.22,1.49-.28-.66-.3-1.48S340,363.8,340.1,363.8Z" style="fill:#455a64"></path><path d="M340,357.84c.14,0,.27.66.29,1.49s-.09,1.49-.23,1.49-.28-.66-.29-1.48S339.83,357.84,340,357.84Z" style="fill:#455a64"></path><path d="M339.88,351.89c.14,0,.27.66.28,1.48s-.09,1.49-.24,1.49-.27-.66-.28-1.48S339.73,351.89,339.88,351.89Z" style="fill:#455a64"></path><path d="M339.8,345.93c.15,0,.27.66.28,1.49s-.1,1.49-.24,1.49-.27-.67-.28-1.49S339.66,345.93,339.8,345.93Z" style="fill:#455a64"></path><path d="M339.76,340c.15,0,.27.67.27,1.49s-.11,1.49-.25,1.49-.26-.66-.27-1.49S339.62,340,339.76,340Z" style="fill:#455a64"></path><path d="M339.75,334c.14,0,.26.66.26,1.49s-.11,1.48-.26,1.49-.26-.67-.26-1.49S339.61,334,339.75,334Z" style="fill:#455a64"></path><path d="M339.77,328.06c.14,0,.25.67.25,1.49s-.12,1.49-.27,1.49-.25-.67-.25-1.49S339.62,328.06,339.77,328.06Z" style="fill:#455a64"></path><path d="M339.81,322.1c.15,0,.26.67.25,1.49s-.13,1.49-.27,1.49-.26-.67-.25-1.49S339.67,322.1,339.81,322.1Z" style="fill:#455a64"></path><path d="M339.89,316.15c.14,0,.25.67.24,1.49s-.14,1.49-.28,1.49-.25-.67-.24-1.5S339.75,316.15,339.89,316.15Z" style="fill:#455a64"></path><path d="M340,310.19c.14,0,.24.68.23,1.5s-.15,1.48-.29,1.48-.25-.67-.23-1.49S339.85,310.19,340,310.19Z" style="fill:#455a64"></path><path d="M340.13,304.23c.14,0,.24.68.22,1.5s-.15,1.49-.29,1.48-.25-.67-.23-1.49S340,304.23,340.13,304.23Z" style="fill:#455a64"></path><path d="M340.34,298.27c.14,0,.23.68.2,1.5s-.17,1.49-.32,1.48-.23-.67-.2-1.5S340.2,298.27,340.34,298.27Z" style="fill:#455a64"></path><path d="M340.69,292.33c.14,0,.21.68.16,1.5s-.21,1.48-.36,1.47-.21-.68-.16-1.51S340.54,292.31,340.69,292.33Z" style="fill:#455a64"></path><path d="M341.23,286.39c.15,0,.19.69.11,1.51s-.27,1.47-.41,1.46-.19-.69-.11-1.51S341.09,286.38,341.23,286.39Z" style="fill:#455a64"></path><path d="M341.81,282c.14,0,.21.37.15.77s-.22.73-.36.71-.21-.37-.16-.78S341.67,281.94,341.81,282Z" style="fill:#455a64"></path><polygon points="319.31 431.07 347.67 431.53 347.45 426.8 319.31 426.95 319.31 431.07" style="fill:#455a64"></polygon><path d="M337.91,253.81a4.62,4.62,0,0,1,.17,1.09c.07.71.17,1.73.27,3,.2,2.53.45,6,.68,9.88.12,1.92.22,3.76.32,5.44a16.82,16.82,0,0,0,.52,4.35,3.68,3.68,0,0,0,1.81,2.15,6.38,6.38,0,0,0,1,.3.62.62,0,0,1-.29,0,2.3,2.3,0,0,1-.82-.15,3.81,3.81,0,0,1-2.08-2.21,16.19,16.19,0,0,1-.65-4.45c-.11-1.68-.23-3.52-.35-5.44-.24-3.86-.43-7.35-.54-9.88-.06-1.27-.09-2.29-.1-3A4,4,0,0,1,337.91,253.81Z" style="fill:#455a64"></path><path d="M340.66,256.18c0,.07-.22.25-.25.67a.83.83,0,0,0,.21.61.66.66,0,0,0,.7.1.66.66,0,0,0,.44-.56.81.81,0,0,0-.28-.58c-.31-.29-.63-.23-.64-.31s.33-.3.86,0a1.16,1.16,0,0,1,.54.87,1.16,1.16,0,0,1-2,.8,1.12,1.12,0,0,1-.22-1C340.22,256.2,340.66,256.12,340.66,256.18Z" style="fill:#455a64"></path><path d="M365.9,260.42a5.17,5.17,0,0,1-2.23.85,9.44,9.44,0,0,1-10-4.47,5.13,5.13,0,0,1-.86-2.23c.09,0,.36.84,1.17,2a9.79,9.79,0,0,0,9.62,4.31C365,260.71,365.87,260.34,365.9,260.42Z" style="fill:#455a64"></path><path d="M321.3,253.81a3.89,3.89,0,0,1-.1,1.94,7.62,7.62,0,0,1-2.4,4,7.7,7.7,0,0,1-4.3,1.86,3.84,3.84,0,0,1-1.93-.16c0-.09.75,0,1.89-.21a8.15,8.15,0,0,0,4-1.88,8.33,8.33,0,0,0,2.39-3.72C321.19,254.55,321.21,253.81,321.3,253.81Z" style="fill:#455a64"></path><path d="M317.31,176.14s-26.72,11.3-27.57,10.87-1.45-21.95-1.45-21.95H275s-2.52,31.92,5.49,37c10.95,7,37.46-7.56,37.46-7.56Z" style="fill:#ffbe9d"></path><path d="M228.08,137.59l-2.74,11.94,12.82,3.05s5.27,1.17,10.51,8.64S255.94,172,255.94,172l8.88-43.88L255.18,135a20.92,20.92,0,0,1-6.28,3c-2.75.8-6.42,1.71-8.47,1.61A94.56,94.56,0,0,1,228.08,137.59Z" style="fill:#263238"></path><path d="M371.93,188.52,255.94,172l8.88-43.88L377.6,155.32a4.94,4.94,0,0,1,3.72,5.61l-3.81,23.48A5,5,0,0,1,371.93,188.52Z" style="fill:#B0BEC5"></path><path d="M217.73,138.15a.5.5,0,0,0-.58.59,67.27,67.27,0,0,0,1.91,7.68c.27.69,6.69,1.31,6.69,1.31l1.77-7.71Z" style="fill:#B0BEC5"></path><polygon points="362.62 173.41 364.39 166.32 289.46 151.12 287.93 158.25 362.62 173.41" style="fill:#263238"></polygon><path d="M348.06,173.17l-16.56-1.33c-.11-1.93,0-9.41,0-9.41s-6.89-1.07-7-8,1.11-22.7,1.11-22.7h0a23.93,23.93,0,0,1,24.05,3l1,.79Z" style="fill:#ffbe9d"></path><path d="M327.25,143.6a1,1,0,0,0-1.34-1.48,1,1,0,0,0-.07,1.42A1,1,0,0,0,327.25,143.6Z" style="fill:#263238"></path><path d="M325.58,142c.11.12.79-.4,1.73-.4s1.64.48,1.75.36-.06-.27-.36-.5a2.39,2.39,0,0,0-1.39-.44,2.29,2.29,0,0,0-1.38.48C325.63,141.76,325.53,142,325.58,142Z" style="fill:#263238"></path><path d="M336.51,142.86a1,1,0,1,0,1.05,1.7,1,1,0,0,0,.33-1.37A1,1,0,0,0,336.51,142.86Z" style="fill:#263238"></path><path d="M335.89,142.87c.1.12.78-.4,1.73-.41s1.64.49,1.74.37-.05-.27-.35-.5a2.31,2.31,0,0,0-1.4-.44,2.35,2.35,0,0,0-1.38.47C335.94,142.6,335.83,142.82,335.89,142.87Z" style="fill:#263238"></path><path d="M332.08,150.69a4.72,4.72,0,0,0-1.53-.32c-.25,0-.44-.08-.46-.22a1.34,1.34,0,0,1,.17-.71c.25-.62.5-1.26.76-1.93a26.64,26.64,0,0,0,1.62-5.06,26.35,26.35,0,0,0-2.13,4.87c-.24.67-.48,1.31-.71,2a1.63,1.63,0,0,0-.14,1,.66.66,0,0,0,.43.39,1.91,1.91,0,0,0,.42.06A4.45,4.45,0,0,0,332.08,150.69Z" style="fill:#263238"></path><path d="M335.16,151.74c1-.59-2.72,1.45-4.65,1.35a2.62,2.62,0,0,0,3.1,1C335.67,153.38,335.16,151.74,335.16,151.74Z" style="fill:#fff"></path><path d="M331.52,162.33a16,16,0,0,0,9-2.55s-2.12,5-9,4.34Z" style="fill:#eb996e"></path><path d="M350.76,142.24c.15-.05,5.13-.38,4.31,5.42s-6.42,3.06-6.41,2.89S350.76,142.24,350.76,142.24Z" style="fill:#ffbe9d"></path><path d="M350.73,148.76s.09.09.25.19a1,1,0,0,0,.76.12,2.49,2.49,0,0,0,1.47-2.08,3.52,3.52,0,0,0-.07-1.49,1.18,1.18,0,0,0-.65-.88.53.53,0,0,0-.64.19c-.1.15-.08.27-.11.28s-.11-.11,0-.35a.61.61,0,0,1,.28-.33.8.8,0,0,1,.58-.07,1.46,1.46,0,0,1,.93,1,3.56,3.56,0,0,1,.12,1.67,2.65,2.65,0,0,1-1.84,2.3,1.07,1.07,0,0,1-.9-.29C350.72,148.91,350.71,148.77,350.73,148.76Z" style="fill:#eb996e"></path><path d="M325.68,131.56c1.79,4.73,8.65,6.6,13.69,6.88-2.33-2.05-.89-1.62-2.33-3.06a21.38,21.38,0,0,0,14,5.21,9.2,9.2,0,0,0-6.1-11.7c-1.55-.47-3.2-.51-4.78-.88-1.33-.31-2.61-.84-4-1-4.06-.6-10.65-1.7-10.54,4.59" style="fill:#263238"></path><path d="M348,138c.26.67,1.71,8.49,1.71,8.49l1.76-7.54Z" style="fill:#263238"></path><path d="M397.25,234.71a16.74,16.74,0,0,0-.08-22.06l-26.74-30.32-7.16,20c.49.32,20.82,22.12,20.82,22.12l-17.47,21.78a12.53,12.53,0,0,0-2.08,11.93l4.67,11.43L382,263.86l-1-1.49h-9.59l-.57-2.3h0Z" style="fill:#ffbe9d"></path><path d="M384.58,195.15l-16.89-17h0A30.27,30.27,0,0,0,356,170.57a24.29,24.29,0,0,0-7.31-1.4h0a29.21,29.21,0,0,1-17.65,0,42.54,42.54,0,0,0-13.92,4h0L291.91,183.4,300,205.7l13.53-4.55.8,21-2.68,31.37L364,254l-.68-28.46,0-20.58,7.56,7.35Z" style="fill:#455a64"></path></g></svg>